D:\PredSimResults\Vitruvian_Man\IG_v14ms_ATx70.mot
version=1
nRows=16
nColumns=31
inDegrees=yes
endheader
                time	         pelvis_tilt	           pelvis_tx	           pelvis_ty	       hip_flexion_r	        knee_angle_r	       ankle_angle_r	       hip_flexion_l	        knee_angle_l	       ankle_angle_l	    lumbar_extension	          arm_flex_r	          arm_flex_l	hamstrings_r/activation	bifemsh_r/activation	glut_max_r/activation	iliopsoas_r/activation	rect_fem_r/activation	  vasti_r/activation	gastroc_r/activation	 soleus_r/activation	tib_ant_r/activation	hamstrings_l/activation	bifemsh_l/activation	glut_max_l/activation	iliopsoas_l/activation	rect_fem_l/activation	  vasti_l/activation	gastroc_l/activation	 soleus_l/activation	tib_ant_l/activation	
          0.53525290	         -5.53485990	          0.74935406	          0.97393986	        -14.20905644	         -5.20707735	          0.30931203	         28.01715519	         -0.14909639	          0.26794053	         -6.29452321	          3.31910620	          3.31959542	          0.05291382	          0.18402402	          0.05000548	          0.48267236	          0.05000602	          0.05000587	          0.33690544	          0.27304096	          0.05000271	          0.36519428	          0.05003702	          0.09118155	          0.05002242	          0.06761022	          0.05007279	          0.05251124	          0.06028934	          0.40133528	
          0.54595796	         -6.05455744	          0.76894553	          0.97218907	        -13.33848367	         -7.72542263	         -0.74407117	         27.18120904	          0.81536830	         -0.47389440	         -5.20788659	          2.59836343	          2.59886207	          0.05535183	          0.15616621	          0.05000499	          0.40959504	          0.05000483	          0.05000375	          0.28589705	          0.23170195	          0.05000216	          0.34017694	          0.05003125	          0.10434580	          0.05000952	          0.05738651	          0.05044672	          0.05893662	          0.05892205	          0.44549554	
          0.55666302	         -6.57722980	          0.78881759	          0.97052753	        -12.22331551	        -10.63608918	         -2.12588044	         26.35410617	          1.30956371	         -1.78405398	         -4.06003444	          1.80830026	          1.80880626	          0.05893315	          0.13252507	          0.05000809	          0.34758102	          0.05000340	          0.05000244	          0.24261128	          0.19662143	          0.05000158	          0.30416587	          0.07049968	          0.14774308	          0.05000366	          0.05000652	          0.05004446	          0.05001525	          0.05000224	          0.64195705	
          0.56736807	         -7.10431379	          0.80843864	          0.96936708	        -10.77997893	        -13.96128657	         -4.10490366	         25.52548650	          1.98438738	         -3.94208007	         -2.91940026	          1.02577447	          1.02628535	          0.05002581	          0.11246290	          0.05000463	          0.29495601	          0.05000375	          0.05000175	          0.20587909	          0.16685218	          0.05000135	          0.27911964	          0.05994488	          0.17291762	          0.05000398	          0.05001000	          0.05005569	          0.05000324	          0.05000123	          0.79106546	
          0.57807313	         -7.62701504	          0.82740917	          0.96894374	         -9.00767294	        -17.62195465	         -6.81361804	         24.80083386	          2.50391077	         -5.86469331	         -1.84676384	          0.31059915	          0.31111222	          0.05000823	          0.09543845	          0.05000536	          0.25029861	          0.06506995	          0.05000257	          0.17470834	          0.14159010	          0.32543579	          0.26159278	          0.05087755	          0.20851992	          0.05000262	          0.05000751	          0.05012274	          0.05000334	          0.05000152	          0.87807682	
          0.58877819	         -8.13806255	          0.84549566	          0.96920923	         -6.99486577	        -21.47628666	         -9.34627133	         24.20674840	          2.79187931	         -7.32913052	         -0.87707393	         -0.30186071	         -0.30134805	          0.05000472	          0.08099710	          0.05000311	          0.21240261	          0.15223371	          0.05000135	          0.14825720	          0.12015287	          0.31349935	          0.23658839	          0.05000012	          0.21923831	          0.05000347	          0.05000991	          0.05014111	          0.05000324	          0.05000148	          0.92885161	
          0.59948325	         -8.62673210	          0.86273609	          0.97009430	         -4.90406044	        -25.26542019	         -9.79009804	         23.70917222	          2.89294144	         -8.36952179	         -0.01701644	         -0.81367986	         -0.81317011	          0.05000501	          0.07761471	          0.05000197	          0.18024438	          0.22513607	          0.05000101	          0.12581116	          0.10196139	          0.43350419	          0.21861716	          0.05126573	          0.22662173	          0.05000575	          0.05001338	          0.05007730	          0.05000411	          0.05000189	          0.95848048	
          0.61018831	         -9.08189943	          0.87934060	          0.97162823	         -2.87505695	        -28.62400259	         -9.65702526	         23.25364796	          2.85050517	         -8.89954899	          0.74550796	         -1.25042400	         -1.24991969	          0.05000698	          0.10995900	          0.05000202	          0.15295554	          0.28938171	          0.05000093	          0.10676432	          0.08652428	          0.42786346	          0.20111381	          0.05012595	          0.23682787	          0.05000511	          0.05001273	          0.05011026	          0.05000586	          0.05000306	          0.97576895	
          0.62089336	         -9.49576521	          0.89548266	          0.97376407	         -0.98092322	        -31.39616045	         -9.34216699	         22.79703472	          2.71192630	         -8.92691668	          1.42184631	         -1.63263691	         -1.63214050	          0.05000625	          0.13868747	          0.05000198	          0.12980164	          0.33388803	          0.05000105	          0.09060410	          0.07342455	          0.41689512	          0.18266994	          0.05011853	          0.23897691	          0.05000560	          0.05001354	          0.05011678	          0.05000763	          0.05000461	          0.96014647	
          0.63159842	         -9.85962977	          0.91129808	          0.97640546	          0.74183938	        -33.55457594	         -8.67819424	         22.30160883	          2.53308205	         -8.58284833	          2.01720236	         -1.97496361	         -1.97447738	          0.05000644	          0.18722269	          0.05000204	          0.12313646	          0.35494299	          0.05000121	          0.07689299	          0.06230823	          0.38818474	          0.16515407	          0.05030579	          0.23509916	          0.05000574	          0.05001284	          0.05009817	          0.05000823	          0.05000502	          0.86685201	
          0.64230348	        -10.16550146	          0.92689790	          0.97940798	          2.28873361	        -35.13620024	         -7.89235752	         21.73566587	          2.37457383	         -8.09215776	          2.53417121	         -2.28863195	         -2.28815797	          0.05000648	          0.24482420	          0.05000222	          0.12764747	          0.35584994	          0.05000146	          0.06526171	          0.05287553	          0.35261932	          0.14917694	          0.05021490	          0.22666228	          0.05000503	          0.05001129	          0.05010236	          0.05000753	          0.05000454	          0.77707335	
          0.65300854	        -10.40683655	          0.94235268	          0.98259809	          3.68014506	        -36.24437670	         -7.07348255	         21.08141293	          2.26607964	         -7.58452654	          2.97165217	         -2.57947537	         -2.57901544	          0.05000620	          0.30928101	          0.05000243	          0.13500403	          0.34269154	          0.05000174	          0.05538868	          0.05000264	          0.32849015	          0.13412987	          0.05012590	          0.21306262	          0.05000441	          0.05001021	          0.05011487	          0.05000657	          0.05000422	          0.69698304	
          0.66371360	        -10.57876030	          0.95768746	          0.98582239	          4.95250001	        -37.00884865	         -6.36389809	         20.33417126	          2.21325106	         -7.12658116	          3.32440111	         -2.84720425	         -2.84675996	          0.05000628	          0.37541921	          0.05000266	          0.14264010	          0.32209042	          0.05000198	          0.05001234	          0.05000264	          0.31635064	          0.12021584	          0.05009206	          0.19648098	          0.05000388	          0.05000930	          0.05014049	          0.05000599	          0.05000410	          0.63318565	
          0.67441865	        -10.67810568	          0.97289287	          0.98895801	          6.14803414	        -37.56904841	         -5.77811626	         19.49932098	          2.20475714	         -6.73879337	          3.58469685	         -3.08703598	         -3.08660870	          0.05000645	          0.43554505	          0.05000286	          0.14944692	          0.29985067	          0.05000218	          0.05001728	          0.05000282	          0.31327692	          0.10724333	          0.05007556	          0.17909968	          0.05000349	          0.05000862	          0.05019178	          0.05000565	          0.05000405	          0.58359730	
          0.68512371	        -10.70338370	          0.98794040	          0.99191746	          7.30722290	        -38.05225625	         -5.25051941	         18.58766319	          2.22023620	         -6.40634462	          3.74437673	         -3.29185616	         -3.29144713	          0.05000657	          0.48142662	          0.05000299	          0.15508367	          0.27997010	          0.05000227	          0.05001770	          0.05000299	          0.31427255	          0.09501798	          0.05006587	          0.16236768	          0.05000325	          0.05000821	          0.05028936	          0.05000553	          0.05000408	          0.54375570	
          0.69582877	        -10.65474960	          1.00279758	          0.99464825	          8.46240204	        -38.55270794	         -4.74376410	         17.61048184	          2.23939854	         -6.09565507	          3.79680966	         -3.45435639	         -3.45396675	          0.05000656	          0.50831610	          0.05000300	          0.15955622	          0.26447926	          0.05000225	          0.05001769	          0.05000298	          0.31686168	          0.08353727	          0.05006062	          0.14684712	          0.05000314	          0.05000801	          0.05042283	          0.05000563	          0.05000417	          0.50866501	
